<svg height="472pt" viewBox="0 -3 472 471" width="472pt" xmlns="http://www.w3.org/2000/svg"><path d="m456 .5h-432c-8.800781 0-16 7.199219-16 16v32c0 8.800781 7.199219 16 16 16h16v-32h400v32h16c8.800781 0 16-7.199219 16-16v-32c0-8.800781-7.199219-16-16-16zm0 0" fill="#ff7f00"/><path d="m440 32.5h-400v208h136c4.398438 0 8 3.601562 8 8v24h256z" fill="#20b2ad"/><path d="m384 187.5v-59c0-35.300781-28.699219-64-64-64s-64 28.699219-64 64v59" fill="#ff7f00"/><path d="m332 65.699219c-34.601562-6.699219-68.101562 16-74.800781 50.601562-.800781 4-1.199219 8.097657-1.199219 12.199219v59h24v-59c0-30.699219 21.800781-57.101562 52-62.800781zm0 0" fill="#db6a03"/><path d="m304 168.5h32v16h-32zm0 0" fill="#e5c200"/><path d="m280 176.5h80c17.699219 0 32 14.300781 32 32v64h-144v-64c0-17.699219 14.300781-32 32-32zm0 0" fill="#9c02a0"/><path d="m296 256.5c-17.699219 0-32-14.300781-32-32v-43.601562c-9.898438 5.703124-16 16.203124-16 27.601562v64h144v-16zm0 0" fill="#800080"/><path d="m320 216.5-24-40h48zm0 0" fill="#ffd700"/><path d="m288 112.5h64v32c0 17.699219-14.300781 32-32 32s-32-14.300781-32-32zm0 0" fill="#ffd700"/><path d="m288 112.5h64v16h-64zm0 0" fill="#e5c200"/><path d="m40 64.5h168v112c0 8.800781-7.199219 16-16 16h-152zm0 0" fill="#ffd700"/><path d="m72 96.5h32v32h-32zm0 0" fill="#800080"/><path d="m176 104.5h-40c-4.398438 0-8-3.601562-8-8s3.601562-8 8-8h40c4.398438 0 8 3.601562 8 8s-3.601562 8-8 8zm0 0" fill="#006"/><path d="m176 136.5h-40c-4.398438 0-8-3.601562-8-8s3.601562-8 8-8h40c4.398438 0 8 3.601562 8 8s-3.601562 8-8 8zm0 0" fill="#006"/><path d="m128 168.5h-56c-4.398438 0-8-3.601562-8-8s3.601562-8 8-8h56c4.398438 0 8 3.601562 8 8s-3.601562 8-8 8zm0 0" fill="#006"/><path d="m176 168.5h-16c-4.398438 0-8-3.601562-8-8s3.601562-8 8-8h16c4.398438 0 8 3.601562 8 8s-3.601562 8-8 8zm0 0" fill="#006"/><path d="m341 176.5h-42c12 10.699219 30 10.699219 42 0zm0 0" fill="#e5c200"/><path d="m296 144.5v-32h-8v32c0 17.699219 14.300781 32 32 32 1.300781-.101562 2.699219-.199219 4-.398438-16-2-28-15.5-28-31.601562zm0 0" fill="#e5c200"/><path d="m184 376.5h-16v-24c0-4.398438-3.601562-8-8-8s-8 3.601562-8 8v24h-120v-24c0-4.398438-3.601562-8-8-8s-8 3.601562-8 8v24h-8c-4.398438 0-8 3.601562-8 8s3.601562 8 8 8h176c4.398438 0 8-3.601562 8-8s-3.601562-8-8-8zm0 0" fill="#006"/><path d="m256 328.5c0 8.835938-7.164062 16-16 16s-16-7.164062-16-16 7.164062-16 16-16 16 7.164062 16 16zm0 0" fill="#ffd700"/><path d="m464 264.5h-288c-4.398438 0-8 3.601562-8 8s3.601562 8 8 8h56v25.5c-12.5 4.398438-19 18.101562-14.601562 30.601562 4.402343 12.5 18.101562 19 30.601562 14.597657 12.5-4.398438 19-18.097657 14.601562-30.597657-2.402343-6.800781-7.800781-12.203124-14.601562-14.601562v-25.5h216c4.398438 0 8-3.601562 8-8s-3.601562-8-8-8zm-224 72c-4.398438 0-8-3.601562-8-8s3.601562-8 8-8 8 3.601562 8 8-3.601562 8-8 8zm0 0" fill="#006"/><path d="m72 376.5h32v16h-32zm0 0" fill="#db6a03"/><path d="m120 352.5h56c4.398438 0 8-3.601562 8-8v-96c0-4.398438-3.601562-8-8-8h-160c-4.398438 0-8 3.601562-8 8v96c0 4.398438 3.601562 8 8 8h40" fill="#ffd700"/><path d="m72 320.5c-17.699219 0-32-14.300781-32-32v-48h-24c-4.398438 0-8 3.601562-8 8v96c0 4.398438 3.601562 8 8 8h160c4.398438 0 8-3.601562 8-8v-24zm0 0" fill="#e5c200"/><path d="m120 352.5c0 17.671875-14.328125 32-32 32s-32-14.328125-32-32 14.328125-32 32-32 32 14.328125 32 32zm0 0" fill="#ff7f00"/><path d="m56 384.5h64c8.800781 0 16 7.199219 16 16v64h-96v-64c0-8.800781 7.199219-16 16-16zm0 0" fill="#ff7f00"/><path d="m152 288.5c0 8.835938-7.164062 16-16 16s-16-7.164062-16-16 7.164062-16 16-16 16 7.164062 16 16zm0 0" fill="#800080"/><path d="m104 376.5c-17.601562 0-32-14.199219-32-31.800781 0-9 3.699219-17.5 10.300781-23.597657-17.402343 3.097657-29 19.597657-26 37 3.097657 17.398438 19.597657 29 37 26 6.097657-1.101562 11.699219-3.902343 16.300781-8.101562-1.800781.300781-3.703124.5-5.601562.5zm0 0" fill="#db6a03"/><path d="m115.601562 384.5h-55.203124c8.703124 15.199219 28.101562 20.5 43.300781 11.800781 5-2.800781 9-6.902343 11.902343-11.800781zm0 0" fill="#db6a03"/><path d="m56 416.5v-32c-8.800781 0-16 7.199219-16 16v64h96v-16h-48c-17.699219 0-32-14.300781-32-32zm0 0" fill="#db6a03"/><path d="m352 376.5c0 17.671875-14.328125 32-32 32s-32-14.328125-32-32 14.328125-32 32-32 32 14.328125 32 32zm0 0" fill="#ff7f00"/><path d="m352 408.5h-64c-8.800781 0-16 7.199219-16 16v40h96v-40c0-8.800781-7.199219-16-16-16zm0 0" fill="#ff7f00"/><path d="m440 304.5h-112c-4.398438 0-8 3.601562-8 8v32c17.601562-.101562 31.898438 14.199219 32 31.800781 0 9.300781-4 18.199219-11 24.199219h107v-88c0-4.398438-3.601562-8-8-8zm0 0" fill="#20b2ad"/><path d="m384 376.5c-17.699219 0-32-14.300781-32-32v-40h-24c-4.398438 0-8 3.601562-8 8v32c17.601562-.101562 31.898438 14.199219 32 31.800781 0 9.300781-4 18.199219-11 24.199219h107v-24zm0 0" fill="#1b8984"/><path d="m416 352.5c0 8.835938-7.164062 16-16 16s-16-7.164062-16-16 7.164062-16 16-16 16 7.164062 16 16zm0 0" fill="#ff7f00"/><path d="m341 400.5c-5.5 4.800781-12.5 7.601562-19.898438 7.898438v.101562h30.898438c8.800781 0 16 7.199219 16 16v8h72c17.699219 0 32-14.300781 32-32zm0 0" fill="#ffd700"/><g fill="#db6a03"><path d="m304 400.5h32v16h-32zm0 0"/><path d="m336 400.5c-17.601562 0-32-14.199219-32-31.800781 0-9 3.699219-17.5 10.300781-23.597657-17.402343 3.097657-29 19.597657-26 37 3.097657 17.398438 19.597657 29 37 26 6.097657-1.101562 11.699219-3.902343 16.300781-8.101562-1.800781.300781-3.703124.5-5.601562.5zm0 0"/><path d="m347.601562 408.5h-55.101562c8.699219 15.199219 28.101562 20.5 43.300781 11.800781 4.898438-2.800781 8.898438-6.902343 11.800781-11.800781zm0 0"/><path d="m280 424.5v-13.800781c-4.898438 2.800781-8 8.101562-8 13.800781v40h96v-8h-56c-17.699219 0-32-14.300781-32-32zm0 0"/></g></svg>